PathFileType	4	(X/Y/Z)	/Users/itak/Documents/Research/Walk-IL/dataset/trc/00262_00009.trc
DataRate	CameraRate	NumFrames	NumMarkers	Units	OrigDataRate	OrigDataStartFrame	OrigNumFrames
100.000000	100.000000	4	53	mm	100.000000	156	418
Frame#	Time	RPSI			LPSI			L3			STRN			T10			C7			CLAV			RBAK			LBAK			LSHO			LUPA			LAEL			LAOL			LWTS			LWPS			LFRA			LIFD			LHPS			LHTS			RSHO			RUPA			RAEL			RAOL			RWTS			RWPS			RFRA			RIFD			RHTS			RHPS			RBHD			LFHD			RFHD			LBHD			LHIP			RHIP			RASI			LASI			LKNE			LTHI			LANK			LTIP			LTOE			LMT1			LMT5			LHEE			RKNE			RTHI			RANK			RTIP			RTOE			RMT1			RMT5			RHEE			
		X1	Y1	Z1	X2	Y2	Z2	X3	Y3	Z3	X4	Y4	Z4	X5	Y5	Z5	X6	Y6	Z6	X7	Y7	Z7	X8	Y8	Z8	X9	Y9	Z9	X10	Y10	Z10	X11	Y11	Z11	X12	Y12	Z12	X13	Y13	Z13	X14	Y14	Z14	X15	Y15	Z15	X16	Y16	Z16	X17	Y17	Z17	X18	Y18	Z18	X19	Y19	Z19	X20	Y20	Z20	X21	Y21	Z21	X22	Y22	Z22	X23	Y23	Z23	X24	Y24	Z24	X25	Y25	Z25	X26	Y26	Z26	X27	Y27	Z27	X28	Y28	Z28	X29	Y29	Z29	X30	Y30	Z30	X31	Y31	Z31	X32	Y32	Z32	X33	Y33	Z33	X34	Y34	Z34	X35	Y35	Z35	X36	Y36	Z36	X37	Y37	Z37	X38	Y38	Z38	X39	Y39	Z39	X40	Y40	Z40	X41	Y41	Z41	X42	Y42	Z42	X43	Y43	Z43	X44	Y44	Z44	X45	Y45	Z45	X46	Y46	Z46	X47	Y47	Z47	X48	Y48	Z48	X49	Y49	Z49	X50	Y50	Z50	X51	Y51	Z51	X52	Y52	Z52	X53	Y53	Z53	

157	1.56	-622.347412109375	1027.169921875	643.5284423828125	-698.2058715820312	1033.447509765625	551.0785522460938	-670.7643432617188	1117.173095703125	584.6871337890625	-478.5216064453125	1299.531127929688	414.0202026367188	-666.5986328125	1243.597290039062	587.4581909179688	-621.9992065429688	1503.240234375	536.5841674804688	-496.6129760742188	1417.749145507812	428.7006225585938	-629.31005859375	1368.113159179688	645.1854858398438	-712.2501220703125	1464.752075195312	469.8039245605469	-682.1971435546875	1462.665893554688	368.8616943359375	-758.701171875	1345.272338867188	332.9362487792969	-772.1432495117188	1135.597045898438	304.1285400390625	-791.7064208984375	1118.867309570312	388.5548095703125	-655.6810913085938	907.3668823242188	281.0937194824219	-728.0294799804688	888.0811767578125	239.4201202392578	-762.1513671875	1029.061279296875	277.5242309570312	-648.3812866210938	714.0653686523438	268.27490234375	-708.149658203125	801.0554809570312	228.9103546142578	-640.20703125	809.0382690429688	239.4105682373047	-466.6106567382812	1467.984130859375	625.2607421875	-437.2726135253906	1404.6376953125	689.2250366210938	-418.2627563476562	1126.353149414062	741.7142944335938	-501.8622131347656	1117.61865234375	695.9845581054688	-341.0411682128906	915.861083984375	611.6666870117188	-332.4488220214844	900.1951293945312	693.951171875	-387.1222229003906	1058.359985351562	731.4387817382812	-337.626953125	725.8511962890625	593.1781616210938	-299.3166809082031	796.1509399414062	591.660400390625	-300.5129699707031	793.4959106445312	663.9367065429688	-538.8753662109375	1654.428466796875	547.2383422851562	-491.8996887207031	1701.700439453125	329.7843017578125	-412.6009521484375	1700.107788085938	391.0446472167969	-617.0515747070312	1663.579711914062	431.1309509277344	-705.9721069335938	972.0217895507812	377.5790710449219	-480.5252685546875	986.4342651367188	665.63671875	-426.845458984375	1031.191528320312	576.4060668945312	-598.0786743164062	1015.080444335938	354.5306396484375	-551.3927612304688	501.1902770996094	373.3001403808594	-606.6196899414062	637.8683471679688	358.8627624511719	-561.96142578125	35.21739959716797	495.55029296875	-564.5607299804688	271.5553894042969	427.1779479980469	-386.62255859375	43.54359817504883	357.144287109375	-392.2053833007812	38.45086669921875	438.6287841796875	-495.7270812988281	39.31451034545898	384.7664489746094	-556.6686401367188	40.65380859375	576.0966796875	-427.7498779296875	496.6793823242188	625.17529296875	-419.57275390625	766.2001342773438	630.0617065429688	-765.055908203125	198.0562133789062	835.1568603515625	-482.75341796875	393.4402160644531	648.5781860351562	-657.0462646484375	60.28711700439453	724.3878173828125	-714.4307861328125	94.13008880615234	705.3336181640625	-694.6384887695312	112.9385299682617	822.465087890625	-823.944091796875	248.7905578613281	802.4364013671875	
158	1.57	-616.1060791015625	1027.45556640625	639.5726928710938	-692.7849731445312	1033.924682617188	547.6961669921875	-665.5045166015625	1117.679565429688	581.0071411132812	-473.9349975585938	1300.236083984375	409.430419921875	-661.3909912109375	1244.156372070312	583.1793823242188	-617.2190551757812	1503.772583007812	532.382568359375	-492.0154418945312	1418.43798828125	424.20751953125	-624.1151123046875	1368.553955078125	640.8692626953125	-707.6477661132812	1465.360473632812	465.6214904785156	-677.52783203125	1463.294189453125	364.7717590332031	-753.4082641601562	1345.8779296875	328.0865478515625	-764.9276123046875	1136.29931640625	297.26611328125	-785.61767578125	1118.749633789062	381.1803588867188	-645.0661010742188	909.8909301757812	274.0796203613281	-716.510986328125	890.0274047851562	230.9521179199219	-753.171142578125	1030.1328125	269.880615234375	-634.6028442382812	716.9076538085938	259.1797485351562	-695.1467895507812	803.4737548828125	219.7961273193359	-627.4557495117188	812.34765625	231.4957275390625	-461.6201782226562	1468.621826171875	620.7381591796875	-432.0904235839844	1405.277221679688	684.6363525390625	-412.569091796875	1126.944946289062	736.7261962890625	-496.0492248535156	1118.034057617188	690.8676147460938	-334.4391479492188	916.8787231445312	606.6734619140625	-326.0743713378906	901.1005859375	688.9833374023438	-381.2562255859375	1059.081420898438	726.45068359375	-329.8558044433594	727.0445556640625	587.840576171875	-291.8042297363281	797.533203125	586.646484375	-293.3850708007812	794.6448974609375	658.8621215820312	-533.8849487304688	1654.7255859375	543.123046875	-487.9848937988281	1702.865966796875	325.6296081542969	-408.4190673828125	1701.197998046875	386.5314636230469	-612.5897827148438	1664.161376953125	427.3886108398438	-702.4476318359375	972.4868774414062	374.3402709960938	-473.8145751953125	987.1878051757812	659.8839111328125	-421.3805236816406	1031.883056640625	570.3121337890625	-594.783203125	1015.756652832031	350.071044921875	-550.050048828125	500.8109130859375	371.9693298339844	-604.4522094726562	637.7490234375	356.9541015625	-561.9229125976562	35.24449157714844	495.5821228027344	-563.9679565429688	271.4696044921875	426.6504211425781	-386.6080627441406	43.51071166992188	357.1737976074219	-392.177734375	38.41210174560547	438.6361999511719	-495.734375	39.30228805541992	384.781494140625	-556.6935424804688	40.70047378540039	576.1476440429688	-413.6446533203125	498.2522583007812	613.8598022460938	-410.3688354492188	767.7702026367188	622.0390625	-744.910888671875	197.8081665039062	828.8114624023438	-467.2208862304688	394.7633056640625	637.6669921875	-637.0360717773438	61.43081283569336	716.3519287109375	-695.2077026367188	94.39630126953125	698.4102783203125	-673.29052734375	114.0074462890625	814.9857788085938	-805.2760620117188	247.6087036132812	797.31982421875	
159	1.58	-609.8802490234375	1027.840209960938	635.611572265625	-687.3904418945312	1034.395263671875	544.352783203125	-660.2879638671875	1118.160034179688	577.3386840820312	-469.4441223144531	1300.947387695312	404.818359375	-656.269287109375	1244.709228515625	578.9714965820312	-612.47265625	1504.295043945312	528.248779296875	-487.4992370605469	1419.13720703125	419.7181701660156	-618.947265625	1368.967407226562	636.5753784179688	-703.094970703125	1465.973510742188	461.5241394042969	-672.9556274414062	1463.976928710938	360.7633361816406	-748.2520751953125	1346.557739257812	323.3101501464844	-757.833984375	1137.1171875	290.5100708007812	-779.5506591796875	1118.709350585938	373.8869934082031	-634.6349487304688	912.5938110351562	267.0460205078125	-705.0669555664062	892.2271118164062	222.5067443847656	-744.2861328125	1031.377197265625	262.3103637695312	-621.0039672851562	719.99462890625	250.1329956054688	-682.2205810546875	806.1348876953125	210.771484375	-614.8491821289062	815.8739013671875	223.6157836914062	-456.6599731445312	1469.246704101562	616.2127685546875	-426.9256591796875	1405.90576171875	680.0369262695312	-406.8624267578125	1127.544799804688	731.7354125976562	-490.2221984863281	1118.43701171875	685.74853515625	-327.816650390625	917.8688354492188	601.7128295898438	-319.6433715820312	902.0413818359375	684.045166015625	-375.3598327636719	1059.815185546875	721.4617309570312	-322.1705322265625	728.1821899414062	582.7417602539062	-284.3534240722656	798.830078125	581.7388305664062	-286.2725219726562	795.7864990234375	653.90283203125	-528.8950805664062	1655.079833984375	538.9838256835938	-484.0107421875	1703.917602539062	321.4311828613281	-404.1841735839844	1702.148071289062	381.9935607910156	-608.0963745117188	1664.78076171875	423.5998840332031	-698.978271484375	972.8829345703125	371.1890258789062	-467.1011962890625	988.0595092773438	654.114013671875	-415.941650390625	1032.669189453125	564.173583984375	-591.6093139648438	1016.392272949219	345.6268005371094	-548.7919311523438	500.4290466308594	370.6820678710938	-602.384521484375	637.6151733398438	355.109375	-561.8848266601562	35.2755012512207	495.6115417480469	-563.3936767578125	271.3856201171875	426.1419982910156	-386.5876770019531	43.47541809082031	357.1979064941406	-392.1568603515625	38.37463760375977	438.6375732421875	-495.7465209960938	39.28895568847656	384.7904357910156	-556.6984252929688	40.74553298950195	576.1937255859375	-400.0373229980469	500.0449523925781	602.3629760742188	-401.3854675292969	769.4474487304688	614.057373046875	-724.07666015625	196.3692779541016	821.8799438476562	-451.8946533203125	396.1489562988281	626.4656982421875	-616.05517578125	61.97120666503906	707.4234619140625	-675.0540771484375	93.82575225830078	690.69287109375	-651.0673828125	114.0962753295898	806.7223510742188	-786.0344848632812	245.0541687011719	791.7281494140625	
160	1.59	-603.6715087890625	1028.300903320312	631.6475219726562	-682.0042114257812	1034.854736328125	541.0523681640625	-655.0879516601562	1118.594848632812	573.6766967773438	-465.0394287109375	1301.659301757812	400.1706848144531	-651.2150268554688	1245.242309570312	574.834716796875	-607.75537109375	1504.805908203125	524.1712036132812	-483.0507507324219	1419.841430664062	415.2205505371094	-613.7984619140625	1369.345947265625	632.2955322265625	-698.575927734375	1466.584350585938	457.5044555664062	-668.4727783203125	1464.709350585938	356.8233337402344	-743.2352905273438	1347.306762695312	318.608154296875	-750.9078369140625	1138.04296875	283.8979187011719	-773.5147705078125	1118.7373046875	366.7282104492188	-624.4132690429688	915.4918823242188	259.9837341308594	-693.7543334960938	894.676513671875	214.1173095703125	-735.5502319335938	1032.785522460938	254.8510589599609	-607.5905151367188	723.345947265625	241.1249542236328	-669.4183349609375	809.0357055664062	201.8467864990234	-602.4266967773438	819.6318969726562	215.7558135986328	-451.71875	1469.852294921875	611.66943359375	-421.7633666992188	1406.51904296875	675.409423828125	-401.1307678222656	1128.1513671875	726.745849609375	-484.3840637207031	1118.828491210938	680.6598510742188	-321.1865539550781	918.8229370117188	596.7770385742188	-313.1647644042969	903.0062255859375	679.126220703125	-369.423583984375	1060.555541992188	716.4718017578125	-314.6175537109375	729.2556762695312	577.86474609375	-277.0019836425781	800.0260620117188	576.9248046875	-279.2064514160156	796.9085693359375	649.052734375	-523.915283203125	1655.48486328125	534.8231201171875	-479.9915161132812	1704.862915039062	317.1905517578125	-399.9067687988281	1702.968017578125	377.4304504394531	-603.5838623046875	1665.434326171875	419.7700805664062	-695.544189453125	973.2169189453125	368.1174926757812	-460.4105834960938	989.0095825195312	648.3505859375	-410.5346069335938	1033.523803710938	558.004638671875	-588.5301513671875	1016.978393554688	341.1974182128906	-547.6376342773438	500.0425415039062	369.4325561523438	-600.4264526367188	637.4681396484375	353.3199157714844	-561.8483276367188	35.30867004394531	495.6401062011719	-562.8460083007812	271.3066101074219	425.657470703125	-386.56298828125	43.43842697143555	357.2159118652344	-392.1445617675781	38.33842468261719	438.6330261230469	-495.76513671875	39.2728271484375	384.7922973632812	-556.6780395507812	40.7955322265625	576.247802734375	-386.9329528808594	502.0211791992188	590.718017578125	-392.6038818359375	771.1905517578125	606.1213989257812	-702.5949096679688	193.7611541748047	814.3402099609375	-436.8222961425781	397.5755310058594	614.99267578125	-594.1849365234375	61.93698501586914	697.501220703125	-654.048583984375	92.50839996337891	682.0919189453125	-628.0498046875	113.2360305786133	797.5982055664062	-766.2315063476562	241.15673828125	785.6693725585938	
